<svg width="776" height="691" viewBox="0 0 776 691" fill="none" xmlns="http://www.w3.org/2000/svg">
<rect x="7" y="7" width="762" height="677" rx="25" stroke="white" stroke-width="14"/>
<rect x="346" y="590" width="101" height="17" transform="rotate(90 346 590)" fill="white"/>
<rect x="327" y="33" width="212" height="23" transform="rotate(180 327 33)" fill="white"/>
<path d="M389.887 660.944H390.919V665.192H389.839V662H380.503V665.192H379.399V660.944H380.359C380.807 660.624 381.159 660.184 381.415 659.624C381.687 659.064 381.895 658.424 382.039 657.704C382.183 656.968 382.287 656.168 382.351 655.304C382.415 654.44 382.471 653.536 382.519 652.592L382.639 650.312H389.887V660.944ZM383.839 651.392L383.767 652.784C383.719 653.712 383.663 654.584 383.599 655.4C383.551 656.2 383.463 656.944 383.335 657.632C383.223 658.32 383.055 658.944 382.831 659.504C382.623 660.064 382.343 660.544 381.991 660.944H388.543V651.392H383.839ZM398.1 650.312C399.348 650.312 400.284 650.592 400.908 651.152C401.532 651.696 401.844 652.4 401.844 653.264C401.844 653.68 401.732 654.136 401.508 654.632C401.3 655.112 400.86 655.512 400.188 655.832C400.588 655.96 400.916 656.136 401.172 656.36C401.444 656.584 401.652 656.832 401.796 657.104C401.956 657.376 402.068 657.656 402.132 657.944C402.196 658.232 402.228 658.504 402.228 658.76C402.228 659.24 402.132 659.68 401.94 660.08C401.764 660.48 401.508 660.824 401.172 661.112C400.852 661.384 400.476 661.6 400.044 661.76C399.628 661.92 399.18 662 398.7 662H393.252V650.312H398.1ZM394.572 656.432V660.92H398.244C398.724 660.92 399.132 660.856 399.468 660.728C399.804 660.6 400.076 660.432 400.284 660.224C400.508 660 400.668 659.752 400.764 659.48C400.86 659.192 400.908 658.904 400.908 658.616C400.908 658.04 400.676 657.536 400.212 657.104C399.764 656.656 399.108 656.432 398.244 656.432H394.572ZM394.572 651.392V655.424H398.028C398.764 655.424 399.356 655.24 399.804 654.872C400.268 654.504 400.5 654.016 400.5 653.408C400.5 652.816 400.292 652.336 399.876 651.968C399.46 651.584 398.772 651.392 397.812 651.392H394.572ZM409.229 651.128C408.605 651.128 408.077 651.248 407.645 651.488C407.213 651.728 406.861 652.048 406.589 652.448C406.333 652.848 406.133 653.312 405.989 653.84C405.861 654.352 405.773 654.888 405.725 655.448H412.397C412.397 654.824 412.341 654.248 412.229 653.72C412.133 653.192 411.965 652.736 411.725 652.352C411.485 651.968 411.157 651.672 410.741 651.464C410.341 651.24 409.837 651.128 409.229 651.128ZM409.205 650.12C409.957 650.12 410.589 650.232 411.101 650.456C411.629 650.664 412.061 650.944 412.397 651.296C412.733 651.632 412.989 652.016 413.165 652.448C413.341 652.88 413.469 653.304 413.549 653.72C413.629 654.12 413.669 654.504 413.669 654.872C413.685 655.224 413.693 655.504 413.693 655.712V656.408H405.701C405.701 657.032 405.749 657.624 405.845 658.184C405.957 658.744 406.149 659.24 406.421 659.672C406.693 660.104 407.061 660.448 407.525 660.704C407.989 660.96 408.581 661.088 409.301 661.088C410.005 661.088 410.629 661.016 411.173 660.872C411.733 660.728 412.349 660.504 413.021 660.2L413.381 661.112C412.709 661.48 412.045 661.752 411.389 661.928C410.733 662.088 410.021 662.168 409.253 662.168C408.261 662.168 407.445 662.008 406.805 661.688C406.165 661.368 405.661 660.944 405.293 660.416C404.925 659.872 404.669 659.24 404.525 658.52C404.381 657.8 404.309 657.032 404.309 656.216C404.309 655.896 404.325 655.52 404.357 655.088C404.405 654.656 404.493 654.216 404.621 653.768C404.749 653.32 404.925 652.88 405.149 652.448C405.373 652 405.661 651.608 406.013 651.272C406.381 650.92 406.821 650.64 407.333 650.432C407.861 650.224 408.485 650.12 409.205 650.12ZM417.613 651.536C418.125 651.12 418.701 650.792 419.341 650.552C419.981 650.296 420.629 650.168 421.285 650.168C422.085 650.168 422.757 650.32 423.301 650.624C423.845 650.928 424.277 651.344 424.597 651.872C424.933 652.384 425.173 652.992 425.317 653.696C425.461 654.4 425.533 655.152 425.533 655.952C425.533 656.816 425.453 657.632 425.293 658.4C425.133 659.152 424.869 659.808 424.501 660.368C424.133 660.928 423.653 661.368 423.061 661.688C422.485 662.008 421.781 662.168 420.949 662.168C420.485 662.168 419.941 662.112 419.317 662C418.709 661.888 418.117 661.648 417.541 661.28V667.04H416.221V650.312H417.469C417.469 650.36 417.469 650.44 417.469 650.552C417.485 650.664 417.493 650.784 417.493 650.912C417.493 651.024 417.493 651.136 417.493 651.248C417.509 651.344 417.517 651.416 417.517 651.464L417.613 651.536ZM417.541 660.152C417.893 660.392 418.373 660.616 418.981 660.824C419.589 661.016 420.189 661.112 420.781 661.112C421.245 661.112 421.685 661.024 422.101 660.848C422.517 660.672 422.877 660.384 423.181 659.984C423.485 659.568 423.725 659.032 423.901 658.376C424.077 657.704 424.165 656.88 424.165 655.904C424.165 655.024 424.085 654.296 423.925 653.72C423.781 653.128 423.565 652.656 423.277 652.304C422.989 651.936 422.645 651.68 422.245 651.536C421.845 651.376 421.405 651.296 420.925 651.296C420.653 651.296 420.357 651.336 420.037 651.416C419.733 651.496 419.421 651.608 419.101 651.752C418.797 651.88 418.509 652.032 418.237 652.208C417.965 652.368 417.733 652.536 417.541 652.712V660.152ZM429.47 655.904V660.92H433.406C434.142 660.92 434.742 660.712 435.206 660.296C435.686 659.864 435.926 659.248 435.926 658.448C435.926 658 435.846 657.616 435.686 657.296C435.542 656.96 435.342 656.696 435.086 656.504C434.83 656.296 434.534 656.144 434.198 656.048C433.878 655.952 433.542 655.904 433.19 655.904H429.47ZM429.47 650.312V654.872H433.406C434.126 654.872 434.726 654.984 435.206 655.208C435.702 655.416 436.094 655.696 436.382 656.048C436.686 656.384 436.902 656.768 437.03 657.2C437.174 657.616 437.246 658.024 437.246 658.424C437.246 658.984 437.15 659.488 436.958 659.936C436.766 660.384 436.502 660.76 436.166 661.064C435.83 661.368 435.438 661.6 434.99 661.76C434.542 661.92 434.062 662 433.55 662H428.15V650.312H429.47Z" fill="white"/>
<path d="M207.972 16.216C207.972 16.936 207.892 17.656 207.732 18.376C207.588 19.08 207.324 19.72 206.94 20.296C206.572 20.856 206.068 21.312 205.428 21.664C204.788 22 203.98 22.168 203.004 22.168C202.06 22.168 201.276 22.008 200.652 21.688C200.044 21.352 199.556 20.912 199.188 20.368C198.82 19.824 198.556 19.2 198.396 18.496C198.252 17.776 198.18 17.032 198.18 16.264C198.18 15.496 198.268 14.744 198.444 14.008C198.62 13.272 198.9 12.616 199.284 12.04C199.684 11.464 200.204 11 200.844 10.648C201.484 10.296 202.26 10.12 203.172 10.12C204.116 10.12 204.892 10.296 205.5 10.648C206.124 11 206.62 11.464 206.988 12.04C207.356 12.616 207.612 13.272 207.756 14.008C207.9 14.728 207.972 15.464 207.972 16.216ZM206.58 16.264C206.58 15.704 206.532 15.128 206.436 14.536C206.356 13.928 206.196 13.384 205.956 12.904C205.716 12.408 205.372 12 204.924 11.68C204.476 11.36 203.892 11.2 203.172 11.2C202.452 11.2 201.86 11.352 201.396 11.656C200.932 11.96 200.564 12.352 200.292 12.832C200.02 13.312 199.828 13.856 199.716 14.464C199.62 15.072 199.572 15.68 199.572 16.288C199.572 16.912 199.612 17.512 199.692 18.088C199.788 18.664 199.964 19.176 200.22 19.624C200.492 20.056 200.86 20.408 201.324 20.68C201.788 20.952 202.404 21.088 203.172 21.088C203.876 21.088 204.452 20.944 204.9 20.656C205.348 20.368 205.692 19.992 205.932 19.528C206.188 19.064 206.356 18.544 206.436 17.968C206.532 17.392 206.58 16.824 206.58 16.264ZM210.537 22V10.264H211.833V15.28H214.425C214.649 15.28 214.865 15.256 215.073 15.208C215.297 15.16 215.505 15.072 215.697 14.944C215.905 14.816 216.089 14.64 216.249 14.416C216.425 14.192 216.577 13.896 216.705 13.528C216.769 13.336 216.849 13.096 216.945 12.808C217.041 12.52 217.137 12.224 217.233 11.92C217.345 11.6 217.449 11.296 217.545 11.008C217.657 10.704 217.745 10.464 217.809 10.288H219.057C218.993 10.464 218.913 10.704 218.817 11.008C218.721 11.296 218.625 11.6 218.529 11.92C218.433 12.224 218.337 12.528 218.241 12.832C218.145 13.12 218.065 13.352 218.001 13.528C217.825 14.072 217.609 14.536 217.353 14.92C217.097 15.304 216.761 15.584 216.345 15.76C216.905 15.92 217.321 16.192 217.593 16.576C217.881 16.944 218.113 17.4 218.289 17.944L219.585 22H218.289C218.209 21.792 218.113 21.52 218.001 21.184C217.889 20.832 217.769 20.464 217.641 20.08C217.529 19.696 217.409 19.328 217.281 18.976C217.169 18.624 217.081 18.344 217.017 18.136V18.16C216.745 17.392 216.393 16.888 215.961 16.648C215.529 16.408 215.057 16.288 214.545 16.288H211.833V22H210.537ZM229.113 22V16.336H222.849V22H221.529V10.312H222.873V15.232L229.113 15.232V10.312H230.457V22H229.113ZM242.847 16.216C242.847 16.936 242.767 17.656 242.607 18.376C242.463 19.08 242.199 19.72 241.815 20.296C241.447 20.856 240.943 21.312 240.303 21.664C239.663 22 238.855 22.168 237.879 22.168C236.935 22.168 236.151 22.008 235.527 21.688C234.919 21.352 234.431 20.912 234.063 20.368C233.695 19.824 233.431 19.2 233.271 18.496C233.127 17.776 233.055 17.032 233.055 16.264C233.055 15.496 233.143 14.744 233.319 14.008C233.495 13.272 233.775 12.616 234.159 12.04C234.559 11.464 235.079 11 235.719 10.648C236.359 10.296 237.135 10.12 238.047 10.12C238.991 10.12 239.767 10.296 240.375 10.648C240.999 11 241.495 11.464 241.863 12.04C242.231 12.616 242.487 13.272 242.631 14.008C242.775 14.728 242.847 15.464 242.847 16.216ZM241.455 16.264C241.455 15.704 241.407 15.128 241.311 14.536C241.231 13.928 241.071 13.384 240.831 12.904C240.591 12.408 240.247 12 239.799 11.68C239.351 11.36 238.767 11.2 238.047 11.2C237.327 11.2 236.735 11.352 236.271 11.656C235.807 11.96 235.439 12.352 235.167 12.832C234.895 13.312 234.703 13.856 234.591 14.464C234.495 15.072 234.447 15.68 234.447 16.288C234.447 16.912 234.487 17.512 234.567 18.088C234.663 18.664 234.839 19.176 235.095 19.624C235.367 20.056 235.735 20.408 236.199 20.68C236.663 20.952 237.279 21.088 238.047 21.088C238.751 21.088 239.327 20.944 239.775 20.656C240.223 20.368 240.567 19.992 240.807 19.528C241.063 19.064 241.231 18.544 241.311 17.968C241.407 17.392 241.455 16.824 241.455 16.264Z" fill="black"/>
<path d="M361.5 589C403.134 588.826 485 610.5 494 683" stroke="white" stroke-width="6"/>
</svg>
