<svg width="948" height="354" viewBox="0 0 948 354" fill="none" xmlns="http://www.w3.org/2000/svg">
<path d="M253.176 310.184C244.296 310.184 236.797 308.852 230.68 306.188C224.661 303.425 220.024 299.38 216.768 294.052C213.611 288.625 212.032 281.916 212.032 273.924V246.988C212.032 239.095 213.611 232.484 216.768 227.156C220.024 221.729 224.711 217.684 230.828 215.02C237.044 212.257 244.543 210.876 253.324 210.876H265.164C274.143 210.876 281.691 212.257 287.808 215.02C293.925 217.684 298.563 221.729 301.72 227.156C304.877 232.484 306.456 239.095 306.456 246.988V273.924C306.456 281.916 304.877 288.625 301.72 294.052C298.563 299.38 293.925 303.425 287.808 306.188C281.691 308.852 274.192 310.184 265.312 310.184H253.176ZM251.696 290.352H266.792C271.035 290.352 274.439 289.76 277.004 288.576C279.569 287.392 281.395 285.517 282.48 282.952C283.664 280.288 284.256 276.835 284.256 272.592V248.32C284.256 244.077 283.664 240.673 282.48 238.108C281.395 235.543 279.569 233.668 277.004 232.484C274.439 231.3 271.035 230.708 266.792 230.708H251.696C247.453 230.708 244.049 231.3 241.484 232.484C238.919 233.668 237.044 235.543 235.86 238.108C234.775 240.673 234.232 244.077 234.232 248.32V272.592C234.232 276.835 234.775 280.288 235.86 282.952C237.044 285.517 238.919 287.392 241.484 288.576C244.148 289.76 247.552 290.352 251.696 290.352ZM249.624 320.544C248.341 320.544 247.7 319.903 247.7 318.62V300.12L248.736 292.572V228.488L247.7 220.94V202.44C247.7 201.157 248.341 200.516 249.624 200.516H268.864C270.147 200.516 270.788 201.157 270.788 202.44V220.94L269.752 228.488V292.572L270.788 300.12V318.62C270.788 319.903 270.147 320.544 268.864 320.544H249.624ZM345.385 310.184C335.419 310.184 328.019 307.964 323.185 303.524C318.35 299.084 315.933 292.227 315.933 282.952V262.528C315.933 253.253 318.399 246.199 323.333 241.364C328.266 236.431 335.518 233.964 345.089 233.964C355.054 233.964 362.454 236.381 367.289 241.216C372.123 245.952 374.541 253.204 374.541 262.972V275.404C374.541 276.785 373.899 277.476 372.617 277.476H337.985V284.432C337.985 287.491 338.527 289.76 339.613 291.24C340.797 292.621 342.671 293.312 345.237 293.312C347.506 293.312 349.183 292.819 350.269 291.832C351.453 290.845 351.995 289.217 351.897 286.948C351.897 285.863 352.538 285.32 353.821 285.32H371.433C372.518 285.32 373.159 285.961 373.357 287.244C373.357 294.94 371.087 300.712 366.549 304.56C362.01 308.309 354.955 310.184 345.385 310.184ZM337.985 264.748H352.637V259.864C352.637 256.805 352.045 254.585 350.861 253.204C349.775 251.724 347.999 250.984 345.533 250.984C342.869 250.984 340.945 251.724 339.761 253.204C338.577 254.585 337.985 256.805 337.985 259.864V264.748ZM421.024 309C419.742 309 419.1 308.359 419.1 307.076V237.22C419.1 235.937 419.742 235.296 421.024 235.296H439.524C440.807 235.296 441.448 235.937 441.448 237.22V307.076C441.448 308.359 440.807 309 439.524 309H421.024ZM386.244 309C384.962 309 384.32 308.359 384.32 307.076V237.22C384.32 235.937 384.962 235.296 386.244 235.296H404.744C406.027 235.296 406.668 235.937 406.668 237.22V307.076C406.668 308.359 406.027 309 404.744 309H386.244ZM403.856 281.62V262.972H422.504V281.62H403.856ZM454.473 278.216C453.092 278.216 452.401 277.525 452.401 276.144V262.972C452.401 261.689 453.092 261.048 454.473 261.048H498.281C499.564 261.048 500.205 261.689 500.205 262.972V276.144C500.205 277.525 499.564 278.216 498.281 278.216H454.473ZM527.499 310.184C521.776 310.184 517.632 308.457 515.067 305.004C512.501 301.551 511.219 296.173 511.219 288.872V237.22C511.219 235.937 511.86 235.296 513.143 235.296H531.643C532.925 235.296 533.567 235.937 533.567 237.22V285.024C533.567 286.997 533.863 288.477 534.455 289.464C535.145 290.451 536.231 290.944 537.711 290.944C538.993 290.944 540.227 290.599 541.411 289.908C542.693 289.217 543.976 288.28 545.259 287.096V237.22C545.259 235.937 545.851 235.296 547.035 235.296H565.831C567.015 235.296 567.607 235.937 567.607 237.22V285.024C567.607 286.997 567.903 288.477 568.495 289.464C569.087 290.451 570.172 290.944 571.751 290.944C573.033 290.944 574.267 290.599 575.451 289.908C576.733 289.217 577.967 288.28 579.151 287.096V237.22C579.151 235.937 579.792 235.296 581.075 235.296H599.723C600.907 235.296 601.499 235.937 601.499 237.22V289.76C601.499 292.917 601.548 295.976 601.647 298.936C601.745 301.797 601.893 304.461 602.091 306.928C602.387 308.309 601.844 309 600.463 309H584.479C583.393 309 582.801 308.507 582.703 307.52C582.505 306.336 582.308 305.004 582.111 303.524C581.913 302.044 581.765 300.564 581.667 299.084C578.904 302.241 575.895 304.905 572.639 307.076C569.481 309.148 565.683 310.184 561.243 310.184C557.296 310.184 554.188 309.395 551.919 307.816C549.748 306.237 548.12 303.721 547.035 300.268C544.371 303.031 541.411 305.399 538.155 307.372C534.997 309.247 531.445 310.184 527.499 310.184ZM623.793 336.38C623.201 336.38 622.757 336.133 622.461 335.64C622.165 335.245 622.116 334.752 622.313 334.16L629.417 309.148L608.549 237.516C608.056 236.036 608.549 235.296 610.029 235.296H630.305C631.391 235.296 632.081 235.888 632.377 237.072L636.817 260.604C637.409 263.761 637.952 267.215 638.445 270.964C638.939 274.615 639.383 278.167 639.777 281.62H640.221C640.715 278.167 641.208 274.615 641.701 270.964C642.195 267.215 642.639 263.811 643.033 260.752L647.917 237.072C648.016 235.888 648.657 235.296 649.841 235.296H669.969C671.351 235.296 671.844 236.036 671.449 237.516L643.773 334.9C643.576 335.887 642.885 336.38 641.701 336.38H623.793ZM695.017 310.184C689.295 310.184 685.101 308.457 682.437 305.004C679.773 301.551 678.441 296.124 678.441 288.724V237.22C678.441 235.937 679.083 235.296 680.365 235.296H698.865C700.148 235.296 700.789 235.937 700.789 237.22V284.136C700.789 286.603 701.135 288.379 701.825 289.464C702.516 290.451 703.601 290.944 705.081 290.944C706.759 290.944 708.436 290.401 710.113 289.316C711.791 288.231 713.419 286.849 714.997 285.172L717.661 296.568C714.899 300.317 711.544 303.524 707.597 306.188C703.749 308.852 699.556 310.184 695.017 310.184ZM718.697 309C717.612 309 716.872 308.457 716.477 307.372C716.28 305.793 716.033 303.869 715.737 301.6C715.54 299.331 715.441 297.259 715.441 295.384L713.221 288.724V237.22C713.221 235.937 713.863 235.296 715.145 235.296H733.645C734.928 235.296 735.569 235.937 735.569 237.22V289.76C735.569 292.917 735.569 295.976 735.569 298.936C735.668 301.797 735.865 304.461 736.161 306.928C736.359 308.309 735.767 309 734.385 309H718.697ZM707.005 227.896C703.059 227.896 699.655 227.156 696.793 225.676C694.031 224.196 691.86 222.765 690.281 221.384C689.887 220.891 689.689 220.2 689.689 219.312V208.212C689.689 207.324 689.837 206.831 690.133 206.732C690.528 206.535 691.071 206.683 691.761 207.176C693.636 208.656 695.856 209.988 698.421 211.172C700.987 212.257 703.848 212.8 707.005 212.8C710.163 212.8 713.024 212.257 715.589 211.172C718.155 209.988 720.375 208.656 722.249 207.176C722.743 206.683 723.187 206.535 723.581 206.732C724.075 206.831 724.321 207.324 724.321 208.212V219.312C724.321 220.299 724.075 220.989 723.581 221.384C722.003 222.864 719.832 224.344 717.069 225.824C714.307 227.205 710.952 227.896 707.005 227.896Z" fill="white"/>
<path d="M461.563 128.5H486.445L474.005 4.98926L461.563 128.5Z" stroke="white"/>
<path d="M474.19 0L461.196 129H474.19V0Z" fill="white"/>
<path d="M819.5 261.563V286.445L943.011 274.004L819.5 261.563Z" stroke="white"/>
<path d="M948 274.19L819 261.196V274.19H948Z" fill="white"/>
<path d="M128.5 261.563V286.445L4.98926 274.004L128.5 261.563Z" stroke="white"/>
<path d="M0 274.19L129 261.196V274.19H0Z" fill="white"/>
</svg>
