<svg width="150" height="87" viewBox="0 0 150 87" fill="none" xmlns="http://www.w3.org/2000/svg">
<path d="M74.5801 10C92.5356 10 107.16 24.7636 107.16 43.0605C107.16 61.3576 92.5356 76.122 74.5801 76.1221C56.6245 76.1221 42 61.3576 42 43.0605C42.0001 24.7636 56.6246 10 74.5801 10Z" stroke="white" stroke-width="6"/>
<path d="M78.2407 42.2945C71.352 36.0244 84.2802 30.0452 92.4988 27.9668C95.0555 27.3202 96.7737 29.6573 95.6007 32.0193C91.5427 40.1908 84.6193 48.1004 78.2407 42.2945Z" fill="#899968"/>
<path d="M75.2991 44.0367C84.642 44.9967 77.8666 57.465 72.5384 63.9695C70.8838 65.9894 68.1351 65.154 67.641 62.5901C65.9144 53.6317 66.6409 43.147 75.2991 44.0367Z" fill="#899968"/>
</svg>
