<svg width="2280" height="400" viewBox="0 0 2280 400" fill="none" xmlns="http://www.w3.org/2000/svg">
<path d="M7.83016 289.507C2.61005 289.507 0 287.032 0 282.084L5.03367 12.5624C5.03367 7.6136 7.45729 5.13918 12.3045 5.13918H81.0981C84.8267 5.13918 87.4368 7.04257 88.9282 10.8494L134.791 145.039L180.653 10.8494C182.144 7.04257 184.754 5.13918 188.483 5.13918H257.836C262.31 5.13918 264.547 7.6136 264.547 12.5624L269.022 282.084C269.022 287.032 266.598 289.507 261.751 289.507H199.669C194.822 289.507 192.398 287.032 192.398 282.084L191.839 206.709C191.839 198.715 192.025 190.149 192.398 181.013C192.771 171.877 193.144 162.741 193.517 153.604C194.262 144.468 194.822 136.093 195.195 128.479H194.076C190.72 138.758 187.178 149.036 183.449 159.314C179.721 169.593 175.992 179.11 172.263 187.865L143.739 258.101C142.621 262.288 139.638 264.382 134.791 264.382C130.316 264.382 127.333 262.288 125.842 258.101L96.1991 187.865C92.8433 179.49 89.3011 170.164 85.5724 159.885C81.8438 149.226 78.488 138.758 75.5051 128.479H73.8272C74.5729 136.093 75.1322 144.468 75.5051 153.604C76.2508 162.36 76.8101 171.306 77.183 180.442C77.5558 189.578 77.7423 198.334 77.7423 206.709L77.183 282.084C77.183 287.032 74.7594 289.507 69.9121 289.507H7.83016Z" fill="white"/>
<path d="M446.848 289.507C442.746 289.507 440.136 287.223 439.018 282.655C438.272 277.706 437.34 270.854 436.221 262.098C435.475 252.962 434.73 244.396 433.984 236.402L426.154 219.843V90.2211C426.154 79.9427 424.662 73.0905 421.679 69.6644C418.696 65.8576 413.29 63.9542 405.46 63.9542C390.172 63.9542 383.461 73.2808 385.325 91.9341C386.071 96.883 383.647 99.3574 378.054 99.3574H315.972C311.871 99.3574 309.447 96.5023 308.701 90.7921C306.464 61.0991 313.921 38.639 331.073 23.4118C348.225 7.80393 374.139 0 408.815 0C444.238 0 469.965 7.42325 485.998 22.2698C502.404 37.1163 510.607 60.7184 510.607 93.0762V215.274C510.607 230.882 510.794 243.825 511.167 254.104C511.54 264.001 512.099 273.138 512.845 281.513C513.59 286.842 511.353 289.507 506.133 289.507H446.848ZM359.038 294.075C340.022 294.075 325.107 287.223 314.294 273.518C303.481 259.814 298.075 240.59 298.075 215.845C298.075 188.056 304.973 166.928 318.769 152.462C332.938 137.996 357.174 128.86 391.477 125.053L432.306 119.914L431.747 165.596L408.815 167.88C397.63 169.783 389.613 173.4 384.766 178.729C380.291 184.059 378.054 192.243 378.054 203.283C378.054 212.419 379.359 219.271 381.969 223.84C384.952 228.408 389.427 230.692 395.392 230.692C401.731 230.692 408.07 228.217 414.408 223.269C421.12 218.32 428.391 210.326 436.221 199.286L442.933 243.825C429.137 260.195 415.9 272.757 403.222 281.513C390.545 289.888 375.817 294.075 359.038 294.075Z" fill="white"/>
<path d="M537.213 289.507C531.993 289.507 530.129 286.652 531.62 280.942L602.651 11.9914C603.77 7.42325 606.38 5.13918 610.481 5.13918H692.698C697.172 5.13918 699.969 7.42325 701.087 11.9914L771.559 280.942C773.05 286.652 771.372 289.507 766.525 289.507H689.342C685.241 289.507 682.631 287.413 681.512 283.226L661.937 161.028C660.445 148.846 658.767 137.616 656.903 127.337C655.412 116.678 653.92 104.497 652.429 90.7921H651.31C649.819 104.497 648.327 116.678 646.836 127.337C645.344 137.996 643.48 149.226 641.243 161.028L621.108 283.226C619.989 287.413 617.379 289.507 613.278 289.507H537.213Z" fill="white"/>
<path d="M898.877 294.075C861.218 294.075 833.253 285.51 814.983 268.379C796.713 251.249 787.577 224.791 787.577 189.007V110.207C787.577 74.4229 796.899 47.2043 815.542 28.551C834.186 9.51699 861.591 0 897.759 0C935.418 0 963.383 9.32665 981.654 27.98C999.924 46.2526 1009.06 74.2325 1009.06 111.92V159.885C1009.06 165.215 1006.64 167.88 1001.79 167.88H870.913V194.718C870.913 206.519 872.963 215.274 877.065 220.985C881.539 226.314 888.624 228.979 898.318 228.979C906.894 228.979 913.233 227.075 917.334 223.269C921.809 219.462 923.859 213.181 923.487 204.425C923.487 200.238 925.91 198.144 930.758 198.144H997.314C1001.42 198.144 1003.84 200.618 1004.58 205.567C1004.58 235.26 996.009 257.53 978.857 272.376C961.705 286.842 935.045 294.075 898.877 294.075ZM870.913 118.772H926.283V99.9284C926.283 88.1274 924.046 79.5621 919.572 74.2325C915.47 68.5223 908.758 65.6672 899.437 65.6672C889.369 65.6672 882.099 68.5223 877.624 74.2325C873.15 79.5621 870.913 88.1274 870.913 99.9284V118.772Z" fill="white"/>
<path d="M1184.72 289.507C1179.87 289.507 1177.45 287.032 1177.45 282.084V12.5624C1177.45 7.6136 1179.87 5.13918 1184.72 5.13918H1254.63C1259.48 5.13918 1261.9 7.6136 1261.9 12.5624V282.084C1261.9 287.032 1259.48 289.507 1254.63 289.507H1184.72ZM1053.29 289.507C1048.44 289.507 1046.02 287.032 1046.02 282.084V12.5624C1046.02 7.6136 1048.44 5.13918 1053.29 5.13918H1123.2C1128.05 5.13918 1130.47 7.6136 1130.47 12.5624V282.084C1130.47 287.032 1128.05 289.507 1123.2 289.507H1053.29ZM1119.84 183.868V111.92H1190.31V183.868H1119.84Z" fill="white"/>
<path d="M1406.21 399.714C1368.92 399.714 1342.08 392.861 1325.67 379.157C1309.64 365.452 1302.74 344.515 1304.98 316.345C1305.35 313.299 1306.28 311.015 1307.77 309.493C1309.26 307.97 1311.13 307.208 1313.36 307.208H1375.45C1377.31 307.208 1378.8 307.78 1379.92 308.922C1381.41 310.444 1382.16 312.728 1382.16 315.774C1382.16 323.007 1384.02 328.146 1387.75 331.191C1391.85 334.237 1398 335.759 1406.21 335.759C1417.02 335.759 1423.92 332.714 1426.9 326.623C1430.26 320.913 1431.94 312.348 1431.94 300.927V276.944C1431.94 272.376 1431.94 268.189 1431.94 264.382C1431.94 260.195 1432.12 256.197 1432.49 252.391L1431.38 251.82C1420.94 261.337 1409.94 268.57 1398.38 273.518C1386.82 278.087 1374.7 280.371 1362.02 280.371C1340.4 280.371 1324.36 273.899 1313.92 260.956C1303.48 247.632 1298.26 227.266 1298.26 199.857V99.9284C1298.26 66.0479 1306.47 40.9231 1322.87 24.5538C1339.28 8.18461 1365.01 0 1400.06 0C1422.8 0 1443.31 1.9034 1461.58 5.71021C1479.85 9.13631 1498.12 11.23 1516.39 11.9914V292.362C1516.39 318.629 1512.1 339.566 1503.53 355.174C1494.95 370.782 1482.46 382.012 1466.05 388.864C1449.65 396.097 1429.7 399.714 1406.21 399.714ZM1401.73 206.138C1406.95 206.138 1411.99 204.996 1416.83 202.712C1421.68 200.428 1426.72 197.192 1431.94 193.005V73.6615C1428.21 72.5195 1424.29 71.7581 1420.19 71.3774C1416.46 70.6161 1412.36 70.2354 1407.89 70.2354C1398.94 70.2354 1392.41 72.9002 1388.31 78.2297C1384.58 83.5592 1382.72 91.7438 1382.72 102.784V182.726C1382.72 190.721 1384.21 196.621 1387.19 200.428C1390.17 204.235 1395.02 206.138 1401.73 206.138Z" fill="white"/>
<path d="M1663.54 294.075C1625.88 294.075 1597.92 285.51 1579.65 268.379C1561.38 251.249 1552.24 224.791 1552.24 189.007V110.207C1552.24 74.4229 1561.56 47.2043 1580.21 28.551C1598.85 9.51699 1626.25 0 1662.42 0C1700.08 0 1728.05 9.32665 1746.32 27.98C1764.59 46.2526 1773.72 74.2325 1773.72 111.92V159.885C1773.72 165.215 1771.3 167.88 1766.45 167.88H1635.58V194.718C1635.58 206.519 1637.63 215.274 1641.73 220.985C1646.2 226.314 1653.29 228.979 1662.98 228.979C1671.56 228.979 1677.9 227.075 1682 223.269C1686.47 219.462 1688.52 213.181 1688.15 204.425C1688.15 200.238 1690.57 198.144 1695.42 198.144H1761.98C1766.08 198.144 1768.5 200.618 1769.25 205.567C1769.25 235.26 1760.67 257.53 1743.52 272.376C1726.37 286.842 1699.71 294.075 1663.54 294.075ZM1635.58 118.772H1690.95V99.9284C1690.95 88.1274 1688.71 79.5621 1684.24 74.2325C1680.13 68.5223 1673.42 65.6672 1664.1 65.6672C1654.03 65.6672 1646.76 68.5223 1642.29 74.2325C1637.81 79.5621 1635.58 88.1274 1635.58 99.9284V118.772Z" fill="white"/>
<path d="M1951.62 294.075C1941.56 294.075 1930.37 292.552 1918.07 289.507C1905.76 286.842 1895.13 283.035 1886.19 278.087L1885.63 214.132C1890.85 217.178 1896.44 219.652 1902.4 221.556C1908.74 223.459 1914.34 224.411 1919.18 224.411C1927.39 224.411 1933.35 221.746 1937.08 216.416C1940.81 210.706 1942.67 201.951 1942.67 190.149V100.499C1942.67 91.7438 1941.37 85.2723 1938.76 81.0848C1936.15 76.8973 1931.3 74.8036 1924.22 74.8036C1918.25 74.8036 1912.1 76.707 1905.76 80.5138C1899.79 84.3206 1893.83 89.2694 1887.86 95.3603L1877.24 49.6787C1889.54 36.7356 1902.4 25.3152 1915.83 15.4175C1929.62 5.13918 1946.22 0 1965.61 0C1986.11 0 2001.4 6.85224 2011.47 20.5567C2021.91 33.8805 2027.13 55.1986 2027.13 84.5109V194.718C2027.13 229.36 2020.79 254.675 2008.11 270.663C1995.43 286.271 1976.6 294.075 1951.62 294.075ZM1817.95 395.145C1813.1 395.145 1810.68 392.671 1810.68 387.722V78.8007C1810.68 66.6189 1810.49 55.0082 1810.12 43.9685C1809.75 32.9288 1809.19 22.8408 1808.44 13.7045C1808.07 7.99428 1810.31 5.13918 1815.15 5.13918H1875.56C1879.29 5.13918 1881.52 7.23292 1882.27 11.4204C1883.02 16.7499 1883.76 23.6021 1884.51 31.9771C1885.63 40.352 1886.37 48.156 1886.74 55.3889L1895.13 82.7978V387.722C1895.13 392.671 1892.71 395.145 1887.86 395.145H1817.95Z" fill="white"/>
<path d="M2202.82 289.507C2197.97 289.507 2195.55 287.032 2195.55 282.084V12.5624C2195.55 7.6136 2197.97 5.13918 2202.82 5.13918H2272.73C2277.58 5.13918 2280 7.6136 2280 12.5624V282.084C2280 287.032 2277.58 289.507 2272.73 289.507H2202.82ZM2071.38 289.507C2066.54 289.507 2064.11 287.032 2064.11 282.084V12.5624C2064.11 7.6136 2066.54 5.13918 2071.38 5.13918H2141.29C2146.14 5.13918 2148.57 7.6136 2148.57 12.5624V282.084C2148.57 287.032 2146.14 289.507 2141.29 289.507H2071.38ZM2137.94 183.868V111.92H2208.41V183.868H2137.94Z" fill="white"/>
<rect x="1014" y="307" width="248" height="91" rx="6" fill="#F4C2C2"/>
<rect y="307" width="284" height="91" rx="6" fill="#899968"/>
<rect x="271" y="307" width="284" height="91" rx="6" fill="#3B7F8B"/>
<rect x="521" y="307" width="276" height="91" rx="6" fill="#6672BF"/>
<rect x="789" y="307" width="259" height="91" rx="6" fill="#E1B0E5"/>
</svg>
