<svg width="215" height="83" viewBox="0 0 215 83" fill="none" xmlns="http://www.w3.org/2000/svg">
<g clip-path="url(#clip0_213_890)">
<path d="M2.7315 26.7986C2.24383 26.7986 2 26.5695 2 26.1114L2.47025 1.16286C2.47025 0.704767 2.69667 0.475719 3.1495 0.475719H9.57626C9.9246 0.475719 10.1684 0.651909 10.3078 1.00429L14.5922 13.4257L18.8768 1.00429C19.0161 0.651909 19.26 0.475719 19.6083 0.475719H26.0873C26.5053 0.475719 26.7143 0.704767 26.7143 1.16286L27.1323 26.1114C27.1323 26.5695 26.9059 26.7986 26.4531 26.7986H20.6533C20.2004 26.7986 19.974 26.5695 19.974 26.1114L19.9218 19.1343C19.9218 18.3943 19.9392 17.6014 19.974 16.7557C20.0089 15.91 20.0437 15.0643 20.0785 14.2186C20.1482 13.3729 20.2004 12.5977 20.2353 11.8929H20.1308C19.8173 12.8443 19.4864 13.7957 19.138 14.7472C18.7897 15.6986 18.4414 16.5795 18.093 17.39L15.4282 23.8914C15.3237 24.2791 15.0451 24.4729 14.5922 24.4729C14.1742 24.4729 13.8956 24.2791 13.7562 23.8914L10.987 17.39C10.6735 16.6148 10.3426 15.7514 9.99426 14.8C9.64593 13.8134 9.33243 12.8443 9.05377 11.8929H8.89702C8.96668 12.5977 9.01893 13.3729 9.05377 14.2186C9.12343 15.0291 9.17568 15.8572 9.21052 16.7029C9.24534 17.5486 9.26277 18.3591 9.26277 19.1343L9.21052 26.1114C9.21052 26.5695 8.98409 26.7986 8.53126 26.7986H2.7315Z" fill="black"/>
<path d="M43.7449 26.7986C43.3618 26.7986 43.1179 26.5871 43.0134 26.1643C42.9438 25.7062 42.8567 25.0719 42.7522 24.2614C42.6825 23.4157 42.6129 22.6229 42.5432 21.8829L41.8117 20.35V8.35143C41.8117 7.4 41.6724 6.76572 41.3937 6.44857C41.115 6.09619 40.6099 5.92 39.8784 5.92C38.4503 5.92 37.8233 6.78334 37.9974 8.51C38.0671 8.96809 37.8406 9.19714 37.3182 9.19714H31.5184C31.1352 9.19714 30.9088 8.93286 30.8392 8.40429C30.6302 5.65571 31.3268 3.57666 32.9292 2.16714C34.5315 0.722381 36.9525 0 40.1919 0C43.5012 0 45.9046 0.687143 47.4025 2.06143C48.9351 3.43571 49.7015 5.62048 49.7015 8.61572V19.9271C49.7015 21.3719 49.7188 22.57 49.7537 23.5214C49.7886 24.4377 49.8408 25.2834 49.9105 26.0586C49.9801 26.5519 49.7711 26.7986 49.2835 26.7986H43.7449ZM35.5417 27.2214C33.7652 27.2214 32.3718 26.5871 31.3617 25.3186C30.3515 24.05 29.8464 22.2705 29.8464 19.98C29.8464 17.4077 30.4908 15.4519 31.7797 14.1129C33.1033 12.7738 35.3675 11.9281 38.5721 11.5757L42.3864 11.1L42.3342 15.3286L40.1919 15.54C39.1469 15.7162 38.398 16.0509 37.9451 16.5443C37.5272 17.0377 37.3182 17.7952 37.3182 18.8171C37.3182 19.6629 37.4401 20.2971 37.6839 20.72C37.9626 21.1429 38.3806 21.3543 38.9379 21.3543C39.5301 21.3543 40.1223 21.1252 40.7144 20.6671C41.3414 20.2091 42.0207 19.4691 42.7522 18.4471L43.3792 22.57C42.0904 24.0852 40.8538 25.2481 39.6694 26.0586C38.4851 26.8338 37.1092 27.2214 35.5417 27.2214Z" fill="black"/>
<path d="M52.187 26.7986C51.6994 26.7986 51.5252 26.5343 51.6645 26.0057L58.3003 1.11001C58.4048 0.687148 58.6487 0.475719 59.0318 0.475719H66.7126C67.1306 0.475719 67.3919 0.687148 67.4964 1.11001L74.0798 26.0057C74.2192 26.5343 74.0624 26.7986 73.6096 26.7986H66.3991C66.0159 26.7986 65.7721 26.6048 65.6676 26.2172L63.8388 14.9057C63.6995 13.7781 63.5427 12.7386 63.3686 11.7871C63.2292 10.8005 63.09 9.67286 62.9506 8.40429H62.8461C62.7067 9.67286 62.5674 10.8005 62.4281 11.7871C62.2887 12.7738 62.1146 13.8134 61.9056 14.9057L60.0246 26.2172C59.9201 26.6048 59.6762 26.7986 59.2931 26.7986H52.187Z" fill="black"/>
<path d="M85.9741 27.2214C82.4559 27.2214 79.8434 26.4286 78.1366 24.8429C76.4297 23.2571 75.5764 20.8081 75.5764 17.4957V10.2014C75.5764 6.88905 76.4471 4.36952 78.1889 2.64286C79.9305 0.880952 82.4908 0 85.8696 0C89.3878 0 92.0003 0.863333 93.7071 2.59C95.414 4.28143 96.2674 6.87143 96.2674 10.36V14.8C96.2674 15.2934 96.041 15.54 95.5881 15.54H83.3616V18.0243C83.3616 19.1166 83.5532 19.9271 83.9363 20.4557C84.3543 20.9491 85.0162 21.1957 85.9218 21.1957C86.7231 21.1957 87.3152 21.0195 87.6983 20.6671C88.1163 20.3148 88.308 19.7334 88.2731 18.9229C88.2731 18.5352 88.4996 18.3414 88.9524 18.3414H95.1701C95.5533 18.3414 95.7797 18.5705 95.8494 19.0286C95.8494 21.7771 95.0483 23.8386 93.4459 25.2129C91.8435 26.5519 89.353 27.2214 85.9741 27.2214ZM83.3616 10.9943H88.5343V9.25C88.5343 8.15762 88.3253 7.36477 87.9073 6.87143C87.5242 6.34286 86.8972 6.07857 86.0263 6.07857C85.0858 6.07857 84.4066 6.34286 83.9886 6.87143C83.5706 7.36477 83.3616 8.15762 83.3616 9.25V10.9943Z" fill="black"/>
<path d="M112.678 26.7986C112.226 26.7986 111.999 26.5695 111.999 26.1114V1.16286C111.999 0.704767 112.226 0.475719 112.678 0.475719H119.209C119.663 0.475719 119.888 0.704767 119.888 1.16286V26.1114C119.888 26.5695 119.663 26.7986 119.209 26.7986H112.678ZM100.399 26.7986C99.9467 26.7986 99.72 26.5695 99.72 26.1114V1.16286C99.72 0.704767 99.9467 0.475719 100.399 0.475719H106.93C107.384 0.475719 107.609 0.704767 107.609 1.16286V26.1114C107.609 26.5695 107.384 26.7986 106.93 26.7986H100.399ZM106.617 17.02V10.36H113.2V17.02H106.617Z" fill="black"/>
<path d="M133.369 37C129.886 37 127.378 36.3657 125.846 35.0971C124.347 33.8286 123.703 31.8905 123.912 29.2829C123.947 29.0009 124.034 28.7895 124.173 28.6486C124.313 28.5076 124.486 28.4371 124.696 28.4371H130.495C130.67 28.4371 130.809 28.49 130.914 28.5957C131.053 28.7366 131.122 28.9481 131.122 29.23C131.122 29.8995 131.296 30.3752 131.645 30.6571C132.028 30.9391 132.603 31.08 133.369 31.08C134.379 31.08 135.024 30.7981 135.303 30.2343C135.616 29.7057 135.773 28.9129 135.773 27.8557V25.6357C135.773 25.2129 135.773 24.8252 135.773 24.4729C135.773 24.0852 135.79 23.7152 135.825 23.3629L135.72 23.31C134.745 24.1909 133.718 24.8605 132.638 25.3186C131.558 25.7414 130.426 25.9529 129.242 25.9529C127.221 25.9529 125.724 25.3538 124.748 24.1557C123.773 22.9223 123.285 21.0371 123.285 18.5V9.25C123.285 6.11381 124.051 3.78809 125.584 2.27286C127.116 0.757619 129.52 0 132.795 0C134.919 0 136.835 0.176191 138.542 0.528572C140.249 0.845714 141.956 1.03952 143.663 1.11V27.0629C143.663 29.4943 143.262 31.4324 142.461 32.8771C141.66 34.3219 140.493 35.3614 138.96 35.9957C137.427 36.6652 135.564 37 133.369 37ZM132.951 19.0814C133.439 19.0814 133.909 18.9757 134.362 18.7643C134.815 18.5529 135.285 18.2534 135.773 17.8657V6.81857C135.425 6.71286 135.059 6.64238 134.675 6.60714C134.328 6.53666 133.944 6.50143 133.526 6.50143C132.69 6.50143 132.08 6.74809 131.698 7.24143C131.349 7.73477 131.175 8.49238 131.175 9.51429V16.9143C131.175 17.6543 131.315 18.2005 131.593 18.5529C131.872 18.9052 132.324 19.0814 132.951 19.0814Z" fill="black"/>
<path d="M157.41 27.2214C153.892 27.2214 151.279 26.4286 149.572 24.8429C147.865 23.2571 147.012 20.8081 147.012 17.4957V10.2014C147.012 6.88905 147.883 4.36952 149.624 2.64286C151.366 0.880952 153.926 0 157.305 0C160.823 0 163.436 0.863333 165.143 2.59C166.849 4.28143 167.703 6.87143 167.703 10.36V14.8C167.703 15.2934 167.477 15.54 167.024 15.54H154.797V18.0243C154.797 19.1166 154.989 19.9271 155.372 20.4557C155.79 20.9491 156.452 21.1957 157.358 21.1957C158.159 21.1957 158.751 21.0195 159.134 20.6671C159.552 20.3148 159.744 19.7334 159.709 18.9229C159.709 18.5352 159.935 18.3414 160.388 18.3414H166.605C166.989 18.3414 167.215 18.5705 167.286 19.0286C167.286 21.7771 166.483 23.8386 164.881 25.2129C163.279 26.5519 160.789 27.2214 157.41 27.2214ZM154.797 10.9943H159.97V9.25C159.97 8.15762 159.761 7.36477 159.343 6.87143C158.96 6.34286 158.333 6.07857 157.462 6.07857C156.521 6.07857 155.842 6.34286 155.424 6.87143C155.007 7.36477 154.797 8.15762 154.797 9.25V10.9943Z" fill="black"/>
<path d="M184.323 27.2214C183.382 27.2214 182.337 27.0805 181.188 26.7986C180.038 26.5519 179.045 26.1995 178.21 25.7414L178.158 19.8214C178.645 20.1034 179.167 20.3324 179.725 20.5086C180.317 20.6848 180.839 20.7729 181.293 20.7729C182.058 20.7729 182.616 20.5262 182.964 20.0329C183.313 19.5043 183.486 18.6938 183.486 17.6014V9.30286C183.486 8.49238 183.364 7.89334 183.121 7.50571C182.877 7.11809 182.424 6.92429 181.762 6.92429C181.205 6.92429 180.63 7.10048 180.038 7.45286C179.481 7.80524 178.923 8.26334 178.366 8.82714L177.374 4.59857C178.523 3.40048 179.725 2.34334 180.979 1.42714C182.268 0.475714 183.818 0 185.629 0C187.544 0 188.973 0.634286 189.913 1.90286C190.889 3.13619 191.377 5.10952 191.377 7.82286V18.0243C191.377 21.2309 190.784 23.5743 189.6 25.0543C188.416 26.4991 186.657 27.2214 184.323 27.2214ZM171.835 36.5771C171.382 36.5771 171.156 36.3481 171.156 35.89V7.29429C171.156 6.16666 171.138 5.09191 171.104 4.07C171.068 3.04809 171.016 2.11429 170.946 1.26857C170.912 0.74 171.121 0.475714 171.574 0.475714H177.216C177.565 0.475714 177.774 0.669524 177.844 1.05714C177.914 1.55048 177.983 2.18477 178.053 2.96C178.158 3.73524 178.227 4.45762 178.261 5.12714L179.045 7.66429V35.89C179.045 36.3481 178.819 36.5771 178.366 36.5771H171.835Z" fill="black"/>
<path d="M207.79 26.7986C207.336 26.7986 207.111 26.5695 207.111 26.1114V1.16286C207.111 0.704767 207.336 0.475719 207.79 0.475719H214.321C214.773 0.475719 215 0.704767 215 1.16286V26.1114C215 26.5695 214.773 26.7986 214.321 26.7986H207.79ZM195.511 26.7986C195.058 26.7986 194.832 26.5695 194.832 26.1114V1.16286C194.832 0.704767 195.058 0.475719 195.511 0.475719H202.042C202.494 0.475719 202.721 0.704767 202.721 1.16286V26.1114C202.721 26.5695 202.494 26.7986 202.042 26.7986H195.511ZM201.729 17.02V10.36H208.312V17.02H201.729Z" fill="black"/>
<path d="M119.312 28.4107H2.57156C2.25589 28.4107 2 28.6643 2 28.977V36.4337C2 36.7465 2.25589 37 2.57156 37H119.312C119.628 37 119.883 36.7465 119.883 36.4337V28.977C119.883 28.6643 119.628 28.4107 119.312 28.4107Z" fill="black"/>
</g>
<mask id="path-11-outside-1_213_890" maskUnits="userSpaceOnUse" x="0" y="42" width="122" height="41" fill="black">
<rect fill="white" y="42" width="122" height="41"/>
<path d="M2.72255 70.7986C2.24085 70.7986 2 70.5695 2 70.1114L2.4645 45.1629C2.4645 44.7048 2.68815 44.4757 3.13544 44.4757H9.48359C9.82766 44.4757 10.0685 44.6519 10.2061 45.0043L14.4382 57.4257L18.6703 45.0043C18.808 44.6519 19.0488 44.4757 19.3929 44.4757H25.7927C26.2055 44.4757 26.412 44.7048 26.412 45.1629L26.8249 70.1114C26.8249 70.5695 26.6012 70.7986 26.1539 70.7986H20.4251C19.9778 70.7986 19.7542 70.5695 19.7542 70.1114L19.7026 63.1343C19.7026 62.3943 19.7198 61.6014 19.7542 60.7557C19.7886 59.91 19.823 59.0643 19.8574 58.2186C19.9262 57.3729 19.9778 56.5976 20.0122 55.8929H19.909C19.5993 56.8443 19.2725 57.7957 18.9284 58.7471C18.5843 59.6986 18.2402 60.5795 17.8962 61.39L15.264 67.8914C15.1608 68.279 14.8855 68.4729 14.4382 68.4729C14.0254 68.4729 13.7501 68.279 13.6125 67.8914L10.8771 61.39C10.5674 60.6148 10.2406 59.7514 9.89648 58.8C9.5524 57.8133 9.24274 56.8443 8.96748 55.8929H8.81265C8.88146 56.5976 8.93307 57.3729 8.96748 58.2186C9.03629 59.029 9.08791 59.8571 9.12231 60.7029C9.15672 61.5486 9.17392 62.359 9.17392 63.1343L9.12231 70.1114C9.12231 70.5695 8.89867 70.7986 8.45137 70.7986H2.72255Z"/>
<path d="M40.2409 71.2214C36.7658 71.2214 34.1852 70.4286 32.4993 68.8429C30.8133 67.2571 29.9703 64.8081 29.9703 61.4957V54.2014C29.9703 50.889 30.8305 48.3695 32.5509 46.6429C34.2712 44.881 36.8002 44 40.1377 44C43.6128 44 46.1934 44.8633 47.8793 46.59C49.5653 48.2814 50.4083 50.8714 50.4083 54.36V58.8C50.4083 59.2933 50.1846 59.54 49.7373 59.54H37.6604V62.0243C37.6604 63.1167 37.8496 63.9271 38.2281 64.4557C38.641 64.949 39.2947 65.1957 40.1893 65.1957C40.9807 65.1957 41.5656 65.0195 41.9441 64.6671C42.3569 64.3148 42.5462 63.7333 42.5118 62.9229C42.5118 62.5352 42.7354 62.3414 43.1827 62.3414H49.3244C49.7029 62.3414 49.9266 62.5705 49.9954 63.0286C49.9954 65.7771 49.204 67.8386 47.6213 69.2129C46.0385 70.5519 43.5784 71.2214 40.2409 71.2214ZM37.6604 54.9943H42.7698V53.25C42.7698 52.1576 42.5634 51.3648 42.1505 50.8714C41.772 50.3429 41.1527 50.0786 40.2925 50.0786C39.3635 50.0786 38.6926 50.3429 38.2797 50.8714C37.8668 51.3648 37.6604 52.1576 37.6604 53.25V54.9943Z"/>
<path d="M63.5191 81C60.0783 81 57.601 80.3657 56.0871 79.0971C54.6076 77.8286 53.971 75.8905 54.1775 73.2829C54.2119 73.001 54.2979 72.7895 54.4355 72.6486C54.5732 72.5076 54.7452 72.4371 54.9516 72.4371H60.6805C60.8525 72.4371 60.9901 72.49 61.0933 72.5957C61.231 72.7367 61.2998 72.9481 61.2998 73.23C61.2998 73.8995 61.4718 74.3752 61.8159 74.6571C62.1944 74.939 62.7621 75.08 63.5191 75.08C64.5169 75.08 65.1534 74.7981 65.4287 74.2343C65.7383 73.7057 65.8932 72.9129 65.8932 71.8557V69.6357C65.8932 69.2129 65.8932 68.8252 65.8932 68.4729C65.8932 68.0852 65.9104 67.7152 65.9448 67.3629L65.8416 67.31C64.8781 68.191 63.8631 68.8605 62.7965 69.3186C61.7299 69.7414 60.6116 69.9529 59.4418 69.9529C57.4462 69.9529 55.9667 69.3538 55.0033 68.1557C54.0398 66.9224 53.5581 65.0371 53.5581 62.5V53.25C53.5581 50.1138 54.3151 47.7881 55.829 46.2729C57.3429 44.7576 59.7171 44 62.9513 44C65.0502 44 66.9426 44.1762 68.6285 44.5286C70.3145 44.8457 72.0005 45.0395 73.6864 45.11V71.0629C73.6864 73.4943 73.2907 75.4324 72.4994 76.8771C71.708 78.3219 70.5554 79.3614 69.0414 79.9957C67.5275 80.6652 65.6867 81 63.5191 81ZM63.1062 63.0814C63.5879 63.0814 64.0524 62.9757 64.4997 62.7643C64.947 62.5529 65.4115 62.2533 65.8932 61.8657V50.8186C65.5491 50.7129 65.1878 50.6424 64.8093 50.6071C64.4653 50.5367 64.0868 50.5014 63.6739 50.5014C62.8481 50.5014 62.246 50.7481 61.8675 51.2414C61.5234 51.7348 61.3514 52.4924 61.3514 53.5143V60.9143C61.3514 61.6543 61.489 62.2005 61.7643 62.5529C62.0395 62.9052 62.4868 63.0814 63.1062 63.0814Z"/>
<path d="M83.1365 71.2214C81.1408 71.2214 79.6785 70.6048 78.7495 69.3714C77.8205 68.1381 77.356 66.2 77.356 63.5571V45.1629C77.356 44.7048 77.5797 44.4757 78.027 44.4757H84.4783C84.9256 44.4757 85.1493 44.7048 85.1493 45.1629V61.9186C85.1493 62.7995 85.2697 63.4338 85.5106 63.8214C85.7514 64.1738 86.1299 64.35 86.646 64.35C87.2309 64.35 87.8159 64.1562 88.4008 63.7686C88.9857 63.381 89.5534 62.8876 90.104 62.2886L91.0329 66.3586C90.0695 67.6976 88.8997 68.8429 87.5234 69.7943C86.1815 70.7457 84.7192 71.2214 83.1365 71.2214ZM91.3942 70.7986C91.0157 70.7986 90.7577 70.6048 90.6201 70.2171C90.5512 69.6533 90.4652 68.9662 90.362 68.1557C90.2932 67.3452 90.2588 66.6052 90.2588 65.9357L89.4846 63.5571V45.1629C89.4846 44.7048 89.7083 44.4757 90.1556 44.4757H96.6069C97.0542 44.4757 97.2779 44.7048 97.2779 45.1629V63.9271C97.2779 65.0548 97.2779 66.1471 97.2779 67.2043C97.3123 68.2262 97.3811 69.1776 97.4843 70.0586C97.5531 70.5519 97.3467 70.7986 96.865 70.7986H91.3942Z"/>
<path d="M113.897 70.7986C113.519 70.7986 113.278 70.5871 113.174 70.1643C113.106 69.7062 113.02 69.0719 112.916 68.2614C112.848 67.4157 112.779 66.6229 112.71 65.8829L111.987 64.35V52.3514C111.987 51.4 111.85 50.7657 111.575 50.4486C111.299 50.0962 110.8 49.92 110.078 49.92C108.667 49.92 108.048 50.7833 108.22 52.51C108.289 52.9681 108.065 53.1971 107.549 53.1971H101.82C101.442 53.1971 101.218 52.9329 101.149 52.4043C100.943 49.6557 101.631 47.5767 103.214 46.1671C104.796 44.7224 107.188 44 110.387 44C113.656 44 116.03 44.6871 117.51 46.0614C119.024 47.4357 119.781 49.6205 119.781 52.6157V63.9271C119.781 65.3719 119.798 66.57 119.832 67.5214C119.867 68.4376 119.918 69.2833 119.987 70.0586C120.056 70.5519 119.849 70.7986 119.368 70.7986H113.897ZM105.794 71.2214C104.039 71.2214 102.663 70.5871 101.665 69.3186C100.667 68.05 100.168 66.2705 100.168 63.98C100.168 61.4076 100.805 59.4519 102.078 58.1129C103.386 56.7738 105.622 55.9281 108.788 55.5757L112.555 55.1L112.504 59.3286L110.387 59.54C109.355 59.7162 108.615 60.051 108.168 60.5443C107.755 61.0376 107.549 61.7952 107.549 62.8171C107.549 63.6629 107.669 64.2971 107.91 64.72C108.185 65.1429 108.598 65.3543 109.149 65.3543C109.734 65.3543 110.319 65.1252 110.904 64.6671C111.523 64.209 112.194 63.469 112.916 62.4471L113.536 66.57C112.263 68.0852 111.041 69.2481 109.871 70.0586C108.701 70.8338 107.342 71.2214 105.794 71.2214Z"/>
</mask>
<path d="M2.72255 70.7986C2.24085 70.7986 2 70.5695 2 70.1114L2.4645 45.1629C2.4645 44.7048 2.68815 44.4757 3.13544 44.4757H9.48359C9.82766 44.4757 10.0685 44.6519 10.2061 45.0043L14.4382 57.4257L18.6703 45.0043C18.808 44.6519 19.0488 44.4757 19.3929 44.4757H25.7927C26.2055 44.4757 26.412 44.7048 26.412 45.1629L26.8249 70.1114C26.8249 70.5695 26.6012 70.7986 26.1539 70.7986H20.4251C19.9778 70.7986 19.7542 70.5695 19.7542 70.1114L19.7026 63.1343C19.7026 62.3943 19.7198 61.6014 19.7542 60.7557C19.7886 59.91 19.823 59.0643 19.8574 58.2186C19.9262 57.3729 19.9778 56.5976 20.0122 55.8929H19.909C19.5993 56.8443 19.2725 57.7957 18.9284 58.7471C18.5843 59.6986 18.2402 60.5795 17.8962 61.39L15.264 67.8914C15.1608 68.279 14.8855 68.4729 14.4382 68.4729C14.0254 68.4729 13.7501 68.279 13.6125 67.8914L10.8771 61.39C10.5674 60.6148 10.2406 59.7514 9.89648 58.8C9.5524 57.8133 9.24274 56.8443 8.96748 55.8929H8.81265C8.88146 56.5976 8.93307 57.3729 8.96748 58.2186C9.03629 59.029 9.08791 59.8571 9.12231 60.7029C9.15672 61.5486 9.17392 62.359 9.17392 63.1343L9.12231 70.1114C9.12231 70.5695 8.89867 70.7986 8.45137 70.7986H2.72255Z" stroke="black" stroke-width="4" mask="url(#path-11-outside-1_213_890)"/>
<path d="M40.2409 71.2214C36.7658 71.2214 34.1852 70.4286 32.4993 68.8429C30.8133 67.2571 29.9703 64.8081 29.9703 61.4957V54.2014C29.9703 50.889 30.8305 48.3695 32.5509 46.6429C34.2712 44.881 36.8002 44 40.1377 44C43.6128 44 46.1934 44.8633 47.8793 46.59C49.5653 48.2814 50.4083 50.8714 50.4083 54.36V58.8C50.4083 59.2933 50.1846 59.54 49.7373 59.54H37.6604V62.0243C37.6604 63.1167 37.8496 63.9271 38.2281 64.4557C38.641 64.949 39.2947 65.1957 40.1893 65.1957C40.9807 65.1957 41.5656 65.0195 41.9441 64.6671C42.3569 64.3148 42.5462 63.7333 42.5118 62.9229C42.5118 62.5352 42.7354 62.3414 43.1827 62.3414H49.3244C49.7029 62.3414 49.9266 62.5705 49.9954 63.0286C49.9954 65.7771 49.204 67.8386 47.6213 69.2129C46.0385 70.5519 43.5784 71.2214 40.2409 71.2214ZM37.6604 54.9943H42.7698V53.25C42.7698 52.1576 42.5634 51.3648 42.1505 50.8714C41.772 50.3429 41.1527 50.0786 40.2925 50.0786C39.3635 50.0786 38.6926 50.3429 38.2797 50.8714C37.8668 51.3648 37.6604 52.1576 37.6604 53.25V54.9943Z" stroke="black" stroke-width="4" mask="url(#path-11-outside-1_213_890)"/>
<path d="M63.5191 81C60.0783 81 57.601 80.3657 56.0871 79.0971C54.6076 77.8286 53.971 75.8905 54.1775 73.2829C54.2119 73.001 54.2979 72.7895 54.4355 72.6486C54.5732 72.5076 54.7452 72.4371 54.9516 72.4371H60.6805C60.8525 72.4371 60.9901 72.49 61.0933 72.5957C61.231 72.7367 61.2998 72.9481 61.2998 73.23C61.2998 73.8995 61.4718 74.3752 61.8159 74.6571C62.1944 74.939 62.7621 75.08 63.5191 75.08C64.5169 75.08 65.1534 74.7981 65.4287 74.2343C65.7383 73.7057 65.8932 72.9129 65.8932 71.8557V69.6357C65.8932 69.2129 65.8932 68.8252 65.8932 68.4729C65.8932 68.0852 65.9104 67.7152 65.9448 67.3629L65.8416 67.31C64.8781 68.191 63.8631 68.8605 62.7965 69.3186C61.7299 69.7414 60.6116 69.9529 59.4418 69.9529C57.4462 69.9529 55.9667 69.3538 55.0033 68.1557C54.0398 66.9224 53.5581 65.0371 53.5581 62.5V53.25C53.5581 50.1138 54.3151 47.7881 55.829 46.2729C57.3429 44.7576 59.7171 44 62.9513 44C65.0502 44 66.9426 44.1762 68.6285 44.5286C70.3145 44.8457 72.0005 45.0395 73.6864 45.11V71.0629C73.6864 73.4943 73.2907 75.4324 72.4994 76.8771C71.708 78.3219 70.5554 79.3614 69.0414 79.9957C67.5275 80.6652 65.6867 81 63.5191 81ZM63.1062 63.0814C63.5879 63.0814 64.0524 62.9757 64.4997 62.7643C64.947 62.5529 65.4115 62.2533 65.8932 61.8657V50.8186C65.5491 50.7129 65.1878 50.6424 64.8093 50.6071C64.4653 50.5367 64.0868 50.5014 63.6739 50.5014C62.8481 50.5014 62.246 50.7481 61.8675 51.2414C61.5234 51.7348 61.3514 52.4924 61.3514 53.5143V60.9143C61.3514 61.6543 61.489 62.2005 61.7643 62.5529C62.0395 62.9052 62.4868 63.0814 63.1062 63.0814Z" stroke="black" stroke-width="4" mask="url(#path-11-outside-1_213_890)"/>
<path d="M83.1365 71.2214C81.1408 71.2214 79.6785 70.6048 78.7495 69.3714C77.8205 68.1381 77.356 66.2 77.356 63.5571V45.1629C77.356 44.7048 77.5797 44.4757 78.027 44.4757H84.4783C84.9256 44.4757 85.1493 44.7048 85.1493 45.1629V61.9186C85.1493 62.7995 85.2697 63.4338 85.5106 63.8214C85.7514 64.1738 86.1299 64.35 86.646 64.35C87.2309 64.35 87.8159 64.1562 88.4008 63.7686C88.9857 63.381 89.5534 62.8876 90.104 62.2886L91.0329 66.3586C90.0695 67.6976 88.8997 68.8429 87.5234 69.7943C86.1815 70.7457 84.7192 71.2214 83.1365 71.2214ZM91.3942 70.7986C91.0157 70.7986 90.7577 70.6048 90.6201 70.2171C90.5512 69.6533 90.4652 68.9662 90.362 68.1557C90.2932 67.3452 90.2588 66.6052 90.2588 65.9357L89.4846 63.5571V45.1629C89.4846 44.7048 89.7083 44.4757 90.1556 44.4757H96.6069C97.0542 44.4757 97.2779 44.7048 97.2779 45.1629V63.9271C97.2779 65.0548 97.2779 66.1471 97.2779 67.2043C97.3123 68.2262 97.3811 69.1776 97.4843 70.0586C97.5531 70.5519 97.3467 70.7986 96.865 70.7986H91.3942Z" stroke="black" stroke-width="4" mask="url(#path-11-outside-1_213_890)"/>
<path d="M113.897 70.7986C113.519 70.7986 113.278 70.5871 113.174 70.1643C113.106 69.7062 113.02 69.0719 112.916 68.2614C112.848 67.4157 112.779 66.6229 112.71 65.8829L111.987 64.35V52.3514C111.987 51.4 111.85 50.7657 111.575 50.4486C111.299 50.0962 110.8 49.92 110.078 49.92C108.667 49.92 108.048 50.7833 108.22 52.51C108.289 52.9681 108.065 53.1971 107.549 53.1971H101.82C101.442 53.1971 101.218 52.9329 101.149 52.4043C100.943 49.6557 101.631 47.5767 103.214 46.1671C104.796 44.7224 107.188 44 110.387 44C113.656 44 116.03 44.6871 117.51 46.0614C119.024 47.4357 119.781 49.6205 119.781 52.6157V63.9271C119.781 65.3719 119.798 66.57 119.832 67.5214C119.867 68.4376 119.918 69.2833 119.987 70.0586C120.056 70.5519 119.849 70.7986 119.368 70.7986H113.897ZM105.794 71.2214C104.039 71.2214 102.663 70.5871 101.665 69.3186C100.667 68.05 100.168 66.2705 100.168 63.98C100.168 61.4076 100.805 59.4519 102.078 58.1129C103.386 56.7738 105.622 55.9281 108.788 55.5757L112.555 55.1L112.504 59.3286L110.387 59.54C109.355 59.7162 108.615 60.051 108.168 60.5443C107.755 61.0376 107.549 61.7952 107.549 62.8171C107.549 63.6629 107.669 64.2971 107.91 64.72C108.185 65.1429 108.598 65.3543 109.149 65.3543C109.734 65.3543 110.319 65.1252 110.904 64.6671C111.523 64.209 112.194 63.469 112.916 62.4471L113.536 66.57C112.263 68.0852 111.041 69.2481 109.871 70.0586C108.701 70.8338 107.342 71.2214 105.794 71.2214Z" stroke="black" stroke-width="4" mask="url(#path-11-outside-1_213_890)"/>
<defs>
<clipPath id="clip0_213_890">
<rect width="213" height="37" fill="white" transform="translate(2)"/>
</clipPath>
</defs>
</svg>
