<svg width="1316" height="135" viewBox="0 0 1316 135" fill="none" xmlns="http://www.w3.org/2000/svg">
<path d="M1.77628 106.116C0.592282 106.116 0.000281766 105.425 0.000281766 104.044V11.1C0.000281766 9.8173 0.641615 9.17596 1.92428 9.17596H67.3403C68.623 9.17596 69.2643 9.8173 69.2643 11.1V104.044C69.2643 105.425 68.6723 106.116 67.4883 106.116H48.1003C46.8176 106.116 46.1763 105.475 46.1763 104.192V29.452H23.0883V103.896C23.0883 105.376 22.4963 106.116 21.3123 106.116H1.77628ZM109.619 107.3C100.344 107.3 93.0919 104.932 87.8626 100.196C82.6332 95.3613 80.0186 88.356 80.0186 79.18V59.2C80.0186 50.1226 82.6332 43.1666 87.8626 38.332C93.0919 33.4973 100.344 31.08 109.619 31.08C118.893 31.08 126.145 33.4973 131.375 38.332C136.604 43.1666 139.219 50.1226 139.219 59.2V79.18C139.219 88.356 136.604 95.3613 131.375 100.196C126.244 104.932 118.992 107.3 109.619 107.3ZM109.619 88.208C112.184 88.208 114.009 87.468 115.095 85.988C116.279 84.4093 116.871 81.8933 116.871 78.44V60.088C116.871 56.536 116.279 54.02 115.095 52.54C114.009 51.06 112.184 50.32 109.619 50.32C107.152 50.32 105.327 51.06 104.143 52.54C102.959 54.02 102.367 56.536 102.367 60.088V78.44C102.367 81.8933 102.959 84.4093 104.143 85.988C105.327 87.468 107.152 88.208 109.619 88.208ZM211.888 103.6C212.282 104.389 212.332 105.031 212.036 105.524C211.838 105.919 211.394 106.116 210.704 106.116H189.244C188.257 106.116 187.517 105.672 187.024 104.784L174.888 77.108H171.188V104.192C171.188 105.475 170.546 106.116 169.264 106.116H150.764C149.481 106.116 148.84 105.475 148.84 104.192V6.95596C148.84 5.6733 149.481 5.03196 150.764 5.03196H169.264C170.546 5.03196 171.188 5.6733 171.188 6.95596V58.756H175.184L186.728 33.596C187.122 32.8066 187.764 32.412 188.652 32.412H209.224C210.013 32.412 210.457 32.6586 210.556 33.152C210.753 33.5466 210.704 34.04 210.408 34.632L194.276 66.748L211.888 103.6ZM254.933 107.3C252.269 107.3 249.309 106.905 246.053 106.116C242.797 105.425 239.985 104.439 237.617 103.156L237.469 86.58C238.85 87.3693 240.33 88.0106 241.909 88.504C243.586 88.9973 245.066 89.244 246.349 89.244C248.519 89.244 250.098 88.5533 251.085 87.172C252.071 85.692 252.565 83.4226 252.565 80.364V57.128C252.565 54.8586 252.219 53.1813 251.529 52.096C250.838 51.0106 249.555 50.468 247.681 50.468C246.102 50.468 244.474 50.9613 242.797 51.948C241.218 52.9346 239.639 54.2173 238.061 55.796L235.249 43.956C238.505 40.6013 241.909 37.6413 245.461 35.076C249.111 32.412 253.502 31.08 258.633 31.08C264.059 31.08 268.105 32.856 270.769 36.408C273.531 39.8613 274.913 45.3866 274.913 52.984V81.548C274.913 90.5266 273.235 97.088 269.881 101.232C266.526 105.277 261.543 107.3 254.933 107.3ZM219.561 133.496C218.278 133.496 217.637 132.855 217.637 131.572V51.504C217.637 48.3466 217.587 45.3373 217.489 42.476C217.39 39.6146 217.242 37 217.045 34.632C216.946 33.152 217.538 32.412 218.821 32.412H234.805C235.791 32.412 236.383 32.9546 236.581 34.04C236.778 35.4213 236.975 37.1973 237.173 39.368C237.469 41.5386 237.666 43.5613 237.765 45.436L239.985 52.54V131.572C239.985 132.855 239.343 133.496 238.061 133.496H219.561ZM313.26 107.3C303.985 107.3 296.93 105.08 292.096 100.64C287.261 96.2 284.844 89.54 284.844 80.66V34.336C284.844 33.0533 285.485 32.412 286.768 32.412H305.268C306.55 32.412 307.192 33.0533 307.192 34.336V81.696C307.192 84.1626 307.636 86.0373 308.524 87.32C309.51 88.504 311.138 89.096 313.408 89.096C315.381 89.096 316.861 88.4546 317.848 87.172C318.933 85.8893 319.476 84.0146 319.476 81.548V72.964C319.476 70.892 319.081 69.412 318.292 68.524C317.502 67.636 316.269 67.192 314.592 67.192C312.816 67.192 311.188 67.6853 309.708 68.672C308.228 69.6586 306.896 70.892 305.712 72.372L305.268 58.164C307.438 56.092 310.102 54.168 313.26 52.392C316.417 50.5173 320.117 49.58 324.36 49.58C329.688 49.58 333.93 51.208 337.088 54.464C340.245 57.6213 341.824 62.8013 341.824 70.004V81.104C341.824 89.5893 339.308 96.1013 334.276 100.64C329.342 105.08 322.337 107.3 313.26 107.3ZM352.184 106.116C350.901 106.116 350.26 105.475 350.26 104.192V34.336C350.26 33.0533 350.901 32.412 352.184 32.412H370.684C371.966 32.412 372.608 33.0533 372.608 34.336V104.192C372.608 105.475 371.966 106.116 370.684 106.116H352.184ZM411.685 107.3C402.213 107.3 395.011 104.981 390.077 100.344C385.144 95.608 382.677 88.652 382.677 79.476V31.82C382.677 22.7426 384.996 15.836 389.633 11.1C394.271 6.26529 401.375 3.84796 410.945 3.84796C419.924 3.84796 426.683 5.82129 431.221 9.76796C435.859 13.616 438.177 19.092 438.177 26.196C438.177 31.6226 437.289 36.112 435.513 39.664C433.737 43.216 431.221 46.1266 427.965 48.396V48.692C432.208 49.58 435.464 51.6026 437.733 54.76C440.003 57.8186 441.137 62.1106 441.137 67.636V78.736C441.137 87.912 438.523 94.9666 433.293 99.9C428.163 104.833 420.96 107.3 411.685 107.3ZM411.833 88.208C414.399 88.208 416.273 87.3693 417.457 85.692C418.641 84.0146 419.233 81.6466 419.233 78.588V66.304C419.233 63.8373 418.691 62.0613 417.605 60.976C416.619 59.8906 415.04 59.348 412.869 59.348C411.587 59.348 410.255 59.5453 408.873 59.94C407.492 60.236 406.111 60.68 404.729 61.272V78.884C404.729 82.0413 405.272 84.4093 406.357 85.988C407.443 87.468 409.268 88.208 411.833 88.208ZM404.729 46.768L408.281 45.88C410.945 45.0906 412.968 43.4133 414.349 40.848C415.731 38.2826 416.421 35.1253 416.421 31.376C416.421 28.416 415.977 26.2453 415.089 24.864C414.3 23.384 412.869 22.644 410.797 22.644C408.824 22.644 407.295 23.2853 406.209 24.568C405.223 25.8506 404.729 27.7746 404.729 30.34V46.768ZM488.055 106.116C486.969 106.116 486.279 105.524 485.983 104.34C485.785 103.057 485.539 101.281 485.243 99.012C485.045 96.644 484.848 94.424 484.651 92.352L482.579 88.06V54.464C482.579 51.8 482.184 50.024 481.395 49.136C480.605 48.1493 479.175 47.656 477.103 47.656C473.057 47.656 471.281 50.0733 471.775 54.908C471.972 56.1906 471.331 56.832 469.851 56.832H453.423C452.337 56.832 451.696 56.092 451.499 54.612C450.907 46.916 452.88 41.0946 457.419 37.148C461.957 33.1026 468.815 31.08 477.991 31.08C487.364 31.08 494.172 33.004 498.415 36.852C502.756 40.7 504.927 46.8173 504.927 55.204V86.876C504.927 90.9213 504.976 94.276 505.075 96.94C505.173 99.5053 505.321 101.873 505.519 104.044C505.716 105.425 505.124 106.116 503.743 106.116H488.055ZM464.819 107.3C459.787 107.3 455.84 105.524 452.979 101.972C450.117 98.42 448.687 93.4373 448.687 87.024C448.687 79.8213 450.512 74.3453 454.163 70.596C457.912 66.8466 464.325 64.4786 473.403 63.492L484.207 62.16L484.059 74L477.991 74.592C475.031 75.0853 472.909 76.0226 471.627 77.404C470.443 78.7853 469.851 80.9066 469.851 83.768C469.851 86.136 470.196 87.912 470.887 89.096C471.676 90.28 472.86 90.872 474.439 90.872C476.116 90.872 477.793 90.2306 479.471 88.948C481.247 87.6653 483.171 85.5933 485.243 82.732L487.019 94.276C483.368 98.5186 479.865 101.775 476.511 104.044C473.156 106.215 469.259 107.3 464.819 107.3ZM511.967 106.116C510.586 106.116 510.092 105.376 510.487 103.896L529.283 34.188C529.579 33.004 530.27 32.412 531.355 32.412H553.111C554.295 32.412 555.035 33.004 555.331 34.188L573.979 103.896C574.374 105.376 573.93 106.116 572.647 106.116H552.223C551.138 106.116 550.447 105.573 550.151 104.488L544.971 72.816C544.576 69.6586 544.132 66.748 543.639 64.084C543.244 61.3213 542.85 58.164 542.455 54.612H542.159C541.764 58.164 541.37 61.3213 540.975 64.084C540.58 66.8466 540.087 69.7573 539.495 72.816L534.167 104.488C533.871 105.573 533.18 106.116 532.095 106.116H511.967ZM607.818 107.3C598.543 107.3 591.291 104.932 586.062 100.196C580.832 95.3613 578.218 88.356 578.218 79.18V59.2C578.218 50.1226 580.832 43.1666 586.062 38.332C591.291 33.4973 598.543 31.08 607.818 31.08C617.092 31.08 624.344 33.4973 629.574 38.332C634.803 43.1666 637.418 50.1226 637.418 59.2V79.18C637.418 88.356 634.803 95.3613 629.574 100.196C624.443 104.932 617.191 107.3 607.818 107.3ZM607.818 88.208C610.383 88.208 612.208 87.468 613.294 85.988C614.478 84.4093 615.07 81.8933 615.07 78.44V60.088C615.07 56.536 614.478 54.02 613.294 52.54C612.208 51.06 610.383 50.32 607.818 50.32C605.351 50.32 603.526 51.06 602.342 52.54C601.158 54.02 600.566 56.536 600.566 60.088V78.44C600.566 81.8933 601.158 84.4093 602.342 85.988C603.526 87.468 605.351 88.208 607.818 88.208ZM698.15 107.3C688.875 107.3 681.623 104.932 676.394 100.196C671.164 95.3613 668.55 88.356 668.55 79.18V59.2C668.55 50.1226 671.164 43.1666 676.394 38.332C681.623 33.4973 688.875 31.08 698.15 31.08C707.424 31.08 714.676 33.4973 719.906 38.332C725.135 43.1666 727.75 50.1226 727.75 59.2V79.18C727.75 88.356 725.135 95.3613 719.906 100.196C714.775 104.932 707.523 107.3 698.15 107.3ZM698.15 88.208C700.715 88.208 702.54 87.468 703.626 85.988C704.81 84.4093 705.402 81.8933 705.402 78.44V60.088C705.402 56.536 704.81 54.02 703.626 52.54C702.54 51.06 700.715 50.32 698.15 50.32C695.683 50.32 693.858 51.06 692.674 52.54C691.49 54.02 690.898 56.536 690.898 60.088V78.44C690.898 81.8933 691.49 84.4093 692.674 85.988C693.858 87.468 695.683 88.208 698.15 88.208ZM739.15 106.116C737.868 106.116 737.226 105.475 737.226 104.192V51.652C737.226 48.396 737.177 45.3373 737.078 42.476C736.98 39.516 736.832 36.9013 736.634 34.632C736.536 33.152 737.128 32.412 738.41 32.412H754.394C755.381 32.412 755.973 32.9546 756.17 34.04C756.368 35.1253 756.516 36.4573 756.614 38.036C756.812 39.516 756.96 40.996 757.058 42.476C759.821 39.3186 762.781 36.6546 765.938 34.484C769.194 32.2146 773.092 31.08 777.63 31.08C781.577 31.08 784.685 31.9186 786.954 33.596C789.224 35.2733 790.95 37.8386 792.134 41.292C794.798 38.4306 797.709 36.0133 800.866 34.04C804.122 32.0666 807.724 31.08 811.67 31.08C817.294 31.08 821.438 32.856 824.102 36.408C826.865 39.8613 828.246 45.2386 828.246 52.54V104.192C828.246 105.475 827.654 106.116 826.47 106.116H807.674C806.49 106.116 805.898 105.475 805.898 104.192V56.388C805.898 54.316 805.553 52.836 804.862 51.948C804.172 50.9613 803.037 50.468 801.458 50.468C800.176 50.468 798.893 50.8133 797.61 51.504C796.426 52.1946 795.193 53.132 793.91 54.316V104.192C793.91 105.475 793.318 106.116 792.134 106.116H773.338C772.154 106.116 771.562 105.475 771.562 104.192V56.388C771.562 54.316 771.217 52.836 770.526 51.948C769.836 50.9613 768.701 50.468 767.122 50.468C765.84 50.468 764.557 50.8133 763.274 51.504C762.09 52.1946 760.857 53.132 759.574 54.316V104.192C759.574 105.475 758.933 106.116 757.65 106.116H739.15ZM889.946 107.3C880.376 107.3 873.124 104.883 868.19 100.048C863.257 95.2133 860.79 88.2573 860.79 79.18V43.364C860.79 35.5693 861.826 29.452 863.898 25.012C865.97 20.572 869.226 16.9213 873.666 14.06C875.837 12.6786 878.353 11.4946 881.214 10.508C884.174 9.5213 887.233 8.6333 890.39 7.84396C893.548 6.95596 896.656 5.9693 899.714 4.88396C902.773 3.69996 905.437 2.26929 907.706 0.591958C908.101 0.197296 908.545 0.0986311 909.038 0.295962C909.532 0.493293 909.828 0.88796 909.926 1.47996L914.218 16.872C914.317 17.3653 914.317 17.908 914.218 18.5C914.218 18.9933 914.021 19.3386 913.626 19.536C911.16 21.4106 908.397 22.792 905.338 23.68C902.28 24.4693 899.32 25.16 896.458 25.752C893.597 26.2453 891.18 26.936 889.206 27.824C886.74 29.008 885.062 30.6853 884.174 32.856C883.286 35.0266 882.842 37.74 882.842 40.996V78.588C882.842 82.14 883.385 84.6066 884.47 85.988C885.654 87.3693 887.48 88.06 889.946 88.06C892.413 88.06 894.238 87.32 895.422 85.84C896.606 84.36 897.198 81.992 897.198 78.736V64.972C897.198 62.1106 896.705 60.1373 895.718 59.052C894.83 57.9666 893.35 57.424 891.278 57.424C889.601 57.424 887.924 57.9173 886.246 58.904C884.569 59.8906 882.99 61.272 881.51 63.048V47.212C883.977 44.7453 886.937 42.624 890.39 40.848C893.942 38.9733 897.593 38.036 901.342 38.036C907.065 38.036 911.456 40.0093 914.514 43.956C917.672 47.804 919.25 53.724 919.25 61.716V79.18C919.25 88.2573 916.636 95.2133 911.406 100.048C906.276 104.883 899.122 107.3 889.946 107.3ZM966.019 106.116C964.934 106.116 964.243 105.524 963.947 104.34C963.75 103.057 963.503 101.281 963.207 99.012C963.01 96.644 962.813 94.424 962.615 92.352L960.543 88.06V54.464C960.543 51.8 960.149 50.024 959.359 49.136C958.57 48.1493 957.139 47.656 955.067 47.656C951.022 47.656 949.246 50.0733 949.739 54.908C949.937 56.1906 949.295 56.832 947.815 56.832H931.387C930.302 56.832 929.661 56.092 929.463 54.612C928.871 46.916 930.845 41.0946 935.383 37.148C939.922 33.1026 946.779 31.08 955.955 31.08C965.329 31.08 972.137 33.004 976.379 36.852C980.721 40.7 982.891 46.8173 982.891 55.204V86.876C982.891 90.9213 982.941 94.276 983.039 96.94C983.138 99.5053 983.286 101.873 983.483 104.044C983.681 105.425 983.089 106.116 981.707 106.116H966.019ZM942.783 107.3C937.751 107.3 933.805 105.524 930.943 101.972C928.082 98.42 926.651 93.4373 926.651 87.024C926.651 79.8213 928.477 74.3453 932.127 70.596C935.877 66.8466 942.29 64.4786 951.367 63.492L962.171 62.16L962.023 74L955.955 74.592C952.995 75.0853 950.874 76.0226 949.591 77.404C948.407 78.7853 947.815 80.9066 947.815 83.768C947.815 86.136 948.161 87.912 948.851 89.096C949.641 90.28 950.825 90.872 952.403 90.872C954.081 90.872 955.758 90.2306 957.435 88.948C959.211 87.6653 961.135 85.5933 963.207 82.732L964.983 94.276C961.333 98.5186 957.83 101.775 954.475 104.044C951.121 106.215 947.223 107.3 942.783 107.3ZM1030.63 107.3C1027.97 107.3 1025.01 106.905 1021.75 106.116C1018.5 105.425 1015.68 104.439 1013.32 103.156L1013.17 86.58C1014.55 87.3693 1016.03 88.0106 1017.61 88.504C1019.29 88.9973 1020.77 89.244 1022.05 89.244C1024.22 89.244 1025.8 88.5533 1026.78 87.172C1027.77 85.692 1028.26 83.4226 1028.26 80.364V57.128C1028.26 54.8586 1027.92 53.1813 1027.23 52.096C1026.54 51.0106 1025.25 50.468 1023.38 50.468C1021.8 50.468 1020.17 50.9613 1018.5 51.948C1016.92 52.9346 1015.34 54.2173 1013.76 55.796L1010.95 43.956C1014.2 40.6013 1017.61 37.6413 1021.16 35.076C1024.81 32.412 1029.2 31.08 1034.33 31.08C1039.76 31.08 1043.8 32.856 1046.47 36.408C1049.23 39.8613 1050.61 45.3866 1050.61 52.984V81.548C1050.61 90.5266 1048.93 97.088 1045.58 101.232C1042.23 105.277 1037.24 107.3 1030.63 107.3ZM995.26 133.496C993.977 133.496 993.336 132.855 993.336 131.572V51.504C993.336 48.3466 993.286 45.3373 993.188 42.476C993.089 39.6146 992.941 37 992.744 34.632C992.645 33.152 993.237 32.412 994.52 32.412H1010.5C1011.49 32.412 1012.08 32.9546 1012.28 34.04C1012.48 35.4213 1012.67 37.1973 1012.87 39.368C1013.17 41.5386 1013.37 43.5613 1013.46 45.436L1015.68 52.54V131.572C1015.68 132.855 1015.04 133.496 1013.76 133.496H995.26ZM1088.07 134.68C1078.2 134.68 1071.1 132.904 1066.76 129.352C1062.52 125.8 1060.69 120.373 1061.28 113.072C1061.38 112.283 1061.63 111.691 1062.02 111.296C1062.42 110.901 1062.91 110.704 1063.5 110.704H1079.93C1080.42 110.704 1080.82 110.852 1081.11 111.148C1081.51 111.543 1081.71 112.135 1081.71 112.924C1081.71 114.799 1082.2 116.131 1083.19 116.92C1084.27 117.709 1085.9 118.104 1088.07 118.104C1090.93 118.104 1092.76 117.315 1093.55 115.736C1094.43 114.256 1094.88 112.036 1094.88 109.076V102.86C1094.88 101.676 1094.88 100.591 1094.88 99.604C1094.88 98.5186 1094.93 97.4826 1095.03 96.496L1094.73 96.348C1091.97 98.8146 1089.06 100.689 1086 101.972C1082.94 103.156 1079.73 103.748 1076.38 103.748C1070.66 103.748 1066.41 102.071 1063.65 98.716C1060.89 95.2626 1059.51 89.984 1059.51 82.88V56.98C1059.51 48.1986 1061.68 41.6866 1066.02 37.444C1070.36 33.2013 1077.17 31.08 1086.44 31.08C1092.46 31.08 1097.89 31.5733 1102.72 32.56C1107.56 33.448 1112.39 33.9906 1117.23 34.188V106.856C1117.23 113.664 1116.09 119.091 1113.82 123.136C1111.55 127.181 1108.25 130.092 1103.91 131.868C1099.57 133.743 1094.29 134.68 1088.07 134.68ZM1086.89 84.508C1088.27 84.508 1089.6 84.212 1090.88 83.62C1092.17 83.028 1093.5 82.1893 1094.88 81.104V50.172C1093.89 49.876 1092.86 49.6786 1091.77 49.58C1090.78 49.3826 1089.7 49.284 1088.51 49.284C1086.15 49.284 1084.42 49.9746 1083.33 51.356C1082.35 52.7373 1081.85 54.8586 1081.85 57.72V78.44C1081.85 80.512 1082.25 82.0413 1083.04 83.028C1083.83 84.0146 1085.11 84.508 1086.89 84.508ZM1164.75 106.116C1163.66 106.116 1162.97 105.524 1162.68 104.34C1162.48 103.057 1162.23 101.281 1161.94 99.012C1161.74 96.644 1161.54 94.424 1161.35 92.352L1159.27 88.06V54.464C1159.27 51.8 1158.88 50.024 1158.09 49.136C1157.3 48.1493 1155.87 47.656 1153.8 47.656C1149.75 47.656 1147.98 50.0733 1148.47 54.908C1148.67 56.1906 1148.03 56.832 1146.55 56.832H1130.12C1129.03 56.832 1128.39 56.092 1128.19 54.612C1127.6 46.916 1129.58 41.0946 1134.11 37.148C1138.65 33.1026 1145.51 31.08 1154.69 31.08C1164.06 31.08 1170.87 33.004 1175.11 36.852C1179.45 40.7 1181.62 46.8173 1181.62 55.204V86.876C1181.62 90.9213 1181.67 94.276 1181.77 96.94C1181.87 99.5053 1182.02 101.873 1182.21 104.044C1182.41 105.425 1181.82 106.116 1180.44 106.116H1164.75ZM1141.51 107.3C1136.48 107.3 1132.54 105.524 1129.67 101.972C1126.81 98.42 1125.38 93.4373 1125.38 87.024C1125.38 79.8213 1127.21 74.3453 1130.86 70.596C1134.61 66.8466 1141.02 64.4786 1150.1 63.492L1160.9 62.16L1160.75 74L1154.69 74.592C1151.73 75.0853 1149.6 76.0226 1148.32 77.404C1147.14 78.7853 1146.55 80.9066 1146.55 83.768C1146.55 86.136 1146.89 87.912 1147.58 89.096C1148.37 90.28 1149.56 90.872 1151.13 90.872C1152.81 90.872 1154.49 90.2306 1156.17 88.948C1157.94 87.6653 1159.87 85.5933 1161.94 82.732L1163.71 94.276C1160.06 98.5186 1156.56 101.775 1153.21 104.044C1149.85 106.215 1145.95 107.3 1141.51 107.3ZM1255.11 103.6C1255.51 104.389 1255.56 105.031 1255.26 105.524C1255.06 105.919 1254.62 106.116 1253.93 106.116H1232.47C1231.48 106.116 1230.74 105.672 1230.25 104.784L1218.11 77.108H1214.41V104.192C1214.41 105.475 1213.77 106.116 1212.49 106.116H1193.99C1192.71 106.116 1192.07 105.475 1192.07 104.192V6.95596C1192.07 5.6733 1192.71 5.03196 1193.99 5.03196H1212.49C1213.77 5.03196 1214.41 5.6733 1214.41 6.95596V58.756H1218.41L1229.95 33.596C1230.35 32.8066 1230.99 32.412 1231.88 32.412H1252.45C1253.24 32.412 1253.68 32.6586 1253.78 33.152C1253.98 33.5466 1253.93 34.04 1253.63 34.632L1237.5 66.748L1255.11 103.6ZM1297.29 106.116C1296.2 106.116 1295.51 105.524 1295.21 104.34C1295.02 103.057 1294.77 101.281 1294.47 99.012C1294.28 96.644 1294.08 94.424 1293.88 92.352L1291.81 88.06V54.464C1291.81 51.8 1291.41 50.024 1290.63 49.136C1289.84 48.1493 1288.41 47.656 1286.33 47.656C1282.29 47.656 1280.51 50.0733 1281.01 54.908C1281.2 56.1906 1280.56 56.832 1279.08 56.832H1262.65C1261.57 56.832 1260.93 56.092 1260.73 54.612C1260.14 46.916 1262.11 41.0946 1266.65 37.148C1271.19 33.1026 1278.05 31.08 1287.22 31.08C1296.59 31.08 1303.4 33.004 1307.65 36.852C1311.99 40.7 1314.16 46.8173 1314.16 55.204V86.876C1314.16 90.9213 1314.21 94.276 1314.31 96.94C1314.4 99.5053 1314.55 101.873 1314.75 104.044C1314.95 105.425 1314.35 106.116 1312.97 106.116H1297.29ZM1274.05 107.3C1269.02 107.3 1265.07 105.524 1262.21 101.972C1259.35 98.42 1257.92 93.4373 1257.92 87.024C1257.92 79.8213 1259.74 74.3453 1263.39 70.596C1267.14 66.8466 1273.56 64.4786 1282.63 63.492L1293.44 62.16L1293.29 74L1287.22 74.592C1284.26 75.0853 1282.14 76.0226 1280.86 77.404C1279.67 78.7853 1279.08 80.9066 1279.08 83.768C1279.08 86.136 1279.43 87.912 1280.12 89.096C1280.91 90.28 1282.09 90.872 1283.67 90.872C1285.35 90.872 1287.02 90.2306 1288.7 88.948C1290.48 87.6653 1292.4 85.5933 1294.47 82.732L1296.25 94.276C1292.6 98.5186 1289.1 101.775 1285.74 104.044C1282.39 106.215 1278.49 107.3 1274.05 107.3Z" fill="white"/>
</svg>
